<?xml version="1.0" encoding="utf-8"?>
<!-- Generator: Adobe Illustrator 15.1.0, SVG Export Plug-In . SVG Version: 6.00 Build 0)  -->
<!DOCTYPE svg PUBLIC "-//W3C//DTD SVG 1.1//EN" "http://www.w3.org/Graphics/SVG/1.1/DTD/svg11.dtd">
<svg version="1.1" id="Layer_1" xmlns="http://www.w3.org/2000/svg" xmlns:xlink="http://www.w3.org/1999/xlink" x="0px" y="0px"
	 width="90.194px" height="65.58px" viewBox="176.279 75.991 90.194 65.58" enable-background="new 176.279 75.991 90.194 65.58"
	 xml:space="preserve">
<g>
	<path fill-opacity="0.8787" stroke-linecap="round" stroke-linejoin="round" stroke-miterlimit="10" d="
		M226.65,86.089l6.715,1.279h0.32h2.237l-0.319,0.64l-0.961,0.959l2.238,0.32h1.28h1.917h1.92l1.917-0.32h2.558h0.639h1.598h1.92
		h0.639h1.598h1.6h1.598h0.319h1.598h1.6h1.277h0.961h0.639h1.278l1.279-0.32v1.917v1.599v1.599v1.599v1.599v1.917v1.598v1.917
		v1.918v1.918v1.917v0.639v1.599v0.959l0.32,0.64v0.639v2.238v0.32v1.599v2.556v0.32v0.959v1.279v2.238v1.279v1.918v1.279v0.638
		v0.32v0.64l0.319,1.279v1.917l0.32,2.238v1.599v1.599v0.959v0.32h-0.32h-13.425l-4.796,0.32h-4.157h-0.32l-4.795-0.32h-3.838h-0.32
		l-0.957,0.32h-1.92h-2.558l-4.796,0.639h-0.319l-2.238-0.639h-0.64h-0.64l-1.277-0.32l-4.157-2.877l-0.32-6.075v-0.319v-0.32v-0.64
		v-0.639l-0.319-0.638v-0.32v-0.32v-1.279v-0.639v-1.279v-0.32l-0.319-3.517v-0.32l-0.32-7.032v-0.32v-0.639v-0.32v-0.32
		l-0.319-4.156v-0.959v-0.64v-0.959v-0.959v-0.639v-0.32l-0.317-3.517v-0.64v-0.64v-1.598l-1.279,0.319h-1.28h-0.317h-0.64h-0.96
		h-1.28l-1.598,0.32h-0.64h-0.319h-1.277h-0.64h-0.96l-1.278,0.32h-0.96h-1.28h-1.917h-0.64l-1.277,0.32h-0.64h-0.96h-0.639h-0.639
		h-0.64h-0.319h-0.32l-1.597,0.32h-0.32h-0.96h-1.277h-1.28h-0.64l-1.277,0.319h-0.32h-0.319h-0.319h-0.64h-1.277l-1.92,0.32h-0.958
		v-0.639l0.639-2.558l0.319-0.639v-0.959l0.319-0.64l0.32-0.64l0.319-0.639l0.961-0.959l0.957-1.279l0.32-0.319l0.319-0.64
		l0.64-0.639l0.96-1.279l1.278-1.598l0.319-0.64l0.319-0.32l0.64-0.959h0.32l0.316-0.64l0.32-0.319l0.639-0.64l1.28-1.599
		l1.277-1.599l0.32-0.32l0.96-1.279l0.32-0.639l0.319-0.32l0.958,0.64h0.319l1.6,0.319l1.278,0.32l1.279,0.64h0.958l1.28,0.639
		l2.878,0.64l0.319,0.32h0.319v0.319l5.436,0.959L226.65,86.089z"/>
</g>
</svg>
